<svg width="21" height="17" viewBox="0 0 21 17" fill="none" xmlns="http://www.w3.org/2000/svg">
<path d="M20.5263 1.9809C19.7715 2.3065 18.95 2.5408 18.1039 2.6321C18.9824 2.1102 19.6402 1.2857 19.954 0.313299C19.1297 0.803699 18.2266 1.1475 17.2849 1.3296C16.8913 0.9088 16.4153 0.573599 15.8865 0.344899C15.3577 0.116099 14.7874 -0.00130076 14.2113 -7.64724e-07C11.8802 -7.64724e-07 10.0054 1.8896 10.0054 4.2084C10.0054 4.534 10.0448 4.8596 10.109 5.1729C6.6184 4.9904 3.5053 3.3228 1.4357 0.769699C1.0586 1.4138 0.8609 2.1472 0.8634 2.8936C0.8634 4.3539 1.6059 5.6416 2.7382 6.3989C2.0709 6.3726 1.4193 6.1892 0.836201 5.8636V5.9154C0.836201 7.9604 2.2818 9.6551 4.2084 10.0449C3.8466 10.1388 3.4745 10.1869 3.1008 10.1879C2.827 10.1879 2.5679 10.1608 2.3065 10.1238C2.8393 11.7914 4.3909 13.0026 6.2386 13.042C4.793 14.1743 2.9824 14.8403 1.0163 14.8403C0.6636 14.8403 0.338 14.828 0 14.7885C1.8649 15.9849 4.0776 16.6756 6.4606 16.6756C14.1965 16.6756 18.4295 10.2669 18.4295 4.7042C18.4295 4.5217 18.4295 4.3391 18.4172 4.1566C19.2362 3.5571 19.954 2.8146 20.5263 1.9809Z" fill="#31352B"/>
</svg>
