<svg width="20" height="20" viewBox="0 0 20 20" fill="none" xmlns="http://www.w3.org/2000/svg">
<path d="M9.74801 6.4986C7.95701 6.4986 6.49601 7.9597 6.49601 9.75C6.49601 11.5403 7.95701 13.0014 9.74801 13.0014C11.538 13.0014 12.999 11.5403 12.999 9.75C12.999 7.9597 11.538 6.4986 9.74801 6.4986ZM19.499 9.75C19.499 8.4036 19.511 7.0694 19.436 5.7254C19.36 4.1644 19.004 2.7789 17.863 1.6374C16.719 0.493399 15.336 0.1398 13.775 0.0640996C12.428 -0.0114704 11.094 0.000699366 9.75001 0.000699366C8.40401 0.000699366 7.06901 -0.0114704 5.72501 0.0640996C4.16401 0.1398 2.77901 0.495899 1.63701 1.6374C0.493011 2.7814 0.140013 4.1644 0.0640134 5.7254C-0.0109866 7.0718 0.00100989 8.406 0.00100989 9.75C0.00100989 11.094 -0.0109866 12.4306 0.0640134 13.7746C0.140013 15.3356 0.496011 16.7211 1.63701 17.8626C2.78101 19.0066 4.16401 19.3602 5.72501 19.4359C7.07201 19.5115 8.40601 19.4993 9.75001 19.4993C11.096 19.4993 12.431 19.5115 13.775 19.4359C15.336 19.3602 16.721 19.0041 17.863 17.8626C19.007 16.7186 19.36 15.3356 19.436 13.7746C19.514 12.4306 19.499 11.0964 19.499 9.75ZM9.74801 14.7527C6.97901 14.7527 4.74501 12.5184 4.74501 9.75C4.74501 6.9816 6.97901 4.7473 9.74801 4.7473C12.516 4.7473 14.75 6.9816 14.75 9.75C14.75 12.5184 12.516 14.7527 9.74801 14.7527ZM14.955 5.7108C14.309 5.7108 13.787 5.1888 13.787 4.5424C13.787 3.896 14.309 3.3741 14.955 3.3741C15.602 3.3741 16.123 3.896 16.123 4.5424C16.124 4.6959 16.094 4.8479 16.035 4.9898C15.976 5.1316 15.89 5.2605 15.782 5.369C15.673 5.4775 15.544 5.5636 15.402 5.6222C15.261 5.6809 15.109 5.711 14.955 5.7108Z" fill="#31352B"/>
</svg>
