<svg width="16" height="16" viewBox="0 0 16 16" fill="none" xmlns="http://www.w3.org/2000/svg">
<g clip-path="url(#clip0_1_6)">
<path d="M16 0H0V16H16V0Z" fill="#FC784E"/>
<path d="M8.01143 12.0571C7.33334 12.0571 6.75046 11.9543 6.26284 11.7486C5.77524 11.5428 5.40571 11.2724 5.15427 10.9371C4.90284 10.6019 4.76952 10.24 4.75427 9.85143C4.75427 9.78283 4.77715 9.72571 4.82283 9.67999C4.86855 9.63427 4.92571 9.61143 4.99427 9.61143H6.01143C6.10284 9.61143 6.17143 9.63046 6.21715 9.66855C6.27046 9.69905 6.31999 9.75236 6.36571 9.82855C6.4419 10.0876 6.61715 10.3047 6.89143 10.48C7.16571 10.6552 7.53905 10.7428 8.01143 10.7428C8.55237 10.7428 8.95999 10.6552 9.23427 10.48C9.50855 10.2971 9.64571 10.0457 9.64571 9.72571C9.64571 9.51236 9.57333 9.33715 9.42855 9.19999C9.29143 9.06283 9.0819 8.94474 8.79999 8.84571C8.52571 8.74665 8.11427 8.62474 7.56571 8.47999C6.66665 8.26665 6.00762 7.98474 5.58855 7.63427C5.17715 7.27618 4.97143 6.76952 4.97143 6.11427C4.97143 5.67236 5.08952 5.27999 5.32571 4.93715C5.56952 4.59427 5.91618 4.3238 6.36571 4.12571C6.82284 3.92761 7.35237 3.82855 7.95427 3.82855C8.57905 3.82855 9.11999 3.93905 9.57715 4.15999C10.0343 4.38093 10.3809 4.65905 10.6171 4.99427C10.8609 5.3219 10.9905 5.64952 11.0057 5.97715C11.0057 6.04571 10.9828 6.10283 10.9371 6.14855C10.8914 6.19427 10.8343 6.21715 10.7657 6.21715H9.70284C9.54284 6.21715 9.43237 6.14474 9.37143 5.99999C9.32571 5.75618 9.17333 5.55427 8.91427 5.39427C8.65524 5.22665 8.33524 5.14283 7.95427 5.14283C7.52762 5.14283 7.19237 5.22283 6.94855 5.38283C6.70474 5.54283 6.58284 5.77524 6.58284 6.07999C6.58284 6.29333 6.6438 6.46855 6.76571 6.60571C6.88762 6.74283 7.07809 6.86474 7.33715 6.97143C7.6038 7.07808 7.98474 7.19618 8.47999 7.32571C9.15046 7.47808 9.6838 7.64952 10.08 7.83999C10.4838 8.03046 10.7809 8.27046 10.9714 8.55999C11.1619 8.84952 11.2571 9.21905 11.2571 9.66855C11.2571 10.1562 11.12 10.5828 10.8457 10.9486C10.5791 11.3066 10.1981 11.5809 9.70284 11.7714C9.21524 11.9619 8.65143 12.0571 8.01143 12.0571Z" fill="white"/>
</g>
<defs>
<clipPath id="clip0_1_6">
<rect width="16" height="16" fill="white"/>
</clipPath>
</defs>
</svg>
